<svg width="448" height="412" viewBox="0 0 448 412" fill="none" xmlns="http://www.w3.org/2000/svg">
<g clip-path="url(#clip0_107_43)">
<g clip-path="url(#clip1_107_43)">
<g filter="url(#filter0_d_107_43)">
<path d="M18.2226 49.7361C78.4402 23.0271 143.997 10.2369 210 12.4283C276.003 14.6198 340.568 31.7306 398.882 62.3751C408.209 67.2769 411.272 78.9967 405.968 88.1012L293.127 281.805C287.823 290.91 276.175 293.886 266.547 289.605C246.019 280.477 223.867 275.366 201.295 274.617C178.723 273.867 156.281 277.498 135.192 285.244C125.302 288.877 113.877 285.135 109.189 275.698L9.44494 74.9364C4.75669 65.5 8.59065 54.0083 18.2226 49.7361Z" fill="url(#paint0_linear_107_43)"/>
</g>
<g filter="url(#filter1_d_107_43)">
<rect x="281.459" y="263.643" width="41.3373" height="147.86" rx="20.6686" transform="rotate(30.2226 281.459 263.643)" fill="url(#paint1_linear_107_43)"/>
<rect x="409.905" y="43.1494" width="41.3373" height="298.9" rx="20.6686" transform="rotate(30.2226 409.905 43.1494)" fill="url(#paint2_linear_107_43)"/>
<g filter="url(#filter2_d_107_43)">
<rect x="235.396" y="265.329" width="118.447" height="22.2585" rx="11.1293" transform="rotate(30.2226 235.396 265.329)" fill="#D9D9D9"/>
<rect x="235.396" y="265.329" width="118.447" height="22.2585" rx="11.1293" transform="rotate(30.2226 235.396 265.329)" fill="url(#paint3_linear_107_43)"/>
</g>
</g>
</g>
</g>
<defs>
<filter id="filter0_d_107_43" x="-5.34846" y="0.978744" width="426.708" height="304.939" filterUnits="userSpaceOnUse" color-interpolation-filters="sRGB">
<feFlood flood-opacity="0" result="BackgroundImageFix"/>
<feColorMatrix in="SourceAlpha" type="matrix" values="0 0 0 0 0 0 0 0 0 0 0 0 0 0 0 0 0 0 127 0" result="hardAlpha"/>
<feOffset dy="1.58989"/>
<feGaussianBlur stdDeviation="6.39933"/>
<feComposite in2="hardAlpha" operator="out"/>
<feColorMatrix type="matrix" values="0 0 0 0 0 0 0 0 0 0 0 0 0 0 0 0 0 0 0.29 0"/>
<feBlend mode="normal" in2="BackgroundImageFix" result="effect1_dropShadow_107_43"/>
<feBlend mode="normal" in="SourceGraphic" in2="effect1_dropShadow_107_43" result="shape"/>
</filter>
<filter id="filter1_d_107_43" x="201.824" y="39.5315" width="249.007" height="379.479" filterUnits="userSpaceOnUse" color-interpolation-filters="sRGB">
<feFlood flood-opacity="0" result="BackgroundImageFix"/>
<feColorMatrix in="SourceAlpha" type="matrix" values="0 0 0 0 0 0 0 0 0 0 0 0 0 0 0 0 0 0 127 0" result="hardAlpha"/>
<feOffset dy="1.58989"/>
<feGaussianBlur stdDeviation="6.39933"/>
<feComposite in2="hardAlpha" operator="out"/>
<feColorMatrix type="matrix" values="0 0 0 0 0 0 0 0 0 0 0 0 0 0 0 0 0 0 0.29 0"/>
<feBlend mode="normal" in2="BackgroundImageFix" result="effect1_dropShadow_107_43"/>
<feBlend mode="normal" in="SourceGraphic" in2="effect1_dropShadow_107_43" result="shape"/>
</filter>
<filter id="filter2_d_107_43" x="215.482" y="258.208" width="130.973" height="96.277" filterUnits="userSpaceOnUse" color-interpolation-filters="sRGB">
<feFlood flood-opacity="0" result="BackgroundImageFix"/>
<feColorMatrix in="SourceAlpha" type="matrix" values="0 0 0 0 0 0 0 0 0 0 0 0 0 0 0 0 0 0 127 0" result="hardAlpha"/>
<feOffset dy="1.58989"/>
<feGaussianBlur stdDeviation="6.39933"/>
<feComposite in2="hardAlpha" operator="out"/>
<feColorMatrix type="matrix" values="0 0 0 0 0 0 0 0 0 0 0 0 0 0 0 0 0 0 0.29 0"/>
<feBlend mode="normal" in2="BackgroundImageFix" result="effect1_dropShadow_107_43"/>
<feBlend mode="normal" in="SourceGraphic" in2="effect1_dropShadow_107_43" result="shape"/>
</filter>
<linearGradient id="paint0_linear_107_43" x1="-338.788" y1="138.168" x2="39.552" y2="1047.75" gradientUnits="userSpaceOnUse">
<stop stop-color="#3EA5FA"/>
<stop offset="0.3125" stop-color="#8239E6"/>
</linearGradient>
<linearGradient id="paint1_linear_107_43" x1="281.459" y1="263.643" x2="344.195" y2="401.784" gradientUnits="userSpaceOnUse">
<stop stop-color="#B96200"/>
<stop offset="1" stop-color="#6B3900"/>
</linearGradient>
<linearGradient id="paint2_linear_107_43" x1="409.905" y1="43.1494" x2="577.717" y2="225.939" gradientUnits="userSpaceOnUse">
<stop stop-color="#E1E1E1"/>
<stop offset="1" stop-color="#776D64"/>
</linearGradient>
<linearGradient id="paint3_linear_107_43" x1="235.396" y1="265.329" x2="235.995" y2="290.399" gradientUnits="userSpaceOnUse">
<stop stop-color="#B96200"/>
<stop offset="1" stop-color="#6B3900"/>
</linearGradient>
<clipPath id="clip0_107_43">
<rect width="448" height="412" fill="white"/>
</clipPath>
<clipPath id="clip1_107_43">
<rect width="448" height="412" fill="white"/>
</clipPath>
</defs>
</svg>
